<svg xmlns="http://www.w3.org/2000/svg" version="1.1" xmlns:xlink="http://www.w3.org/1999/xlink" xmlns:svgjs="http://svgjs.dev/svgjs" width="2000" height="1252" viewBox="0 0 2000 1252"><g transform="matrix(1,0,0,1,-1.2121212121212466,-2.01935483870966)"><svg viewBox="0 0 396 248" data-background-color="#001f3f" preserveAspectRatio="xMidYMid meet" height="1252" width="2000" xmlns="http://www.w3.org/2000/svg" xmlns:xlink="http://www.w3.org/1999/xlink"><g id="tight-bounds" transform="matrix(1,0,0,1,0.2400000000000091,0.4000000000000057)"><svg viewBox="0 0 395.52 247.2" height="247.2" width="395.52"><rect width="395.52" height="247.2" fill="url(#a1115a1c-d6db-4b03-990d-6b3aba02bebf)" mask="url(#6619571c-86ea-4b2d-ae41-43b794e4c567)" data-fill-palette-color="tertiary"></rect><g><svg></svg></g><g><svg viewBox="0 0 395.52 247.2" height="247.2" width="395.52"><g transform="matrix(1,0,0,1,75.54432,64.31311434511434)"><svg viewBox="0 0 244.43135999999998 118.57377130977129" height="118.57377130977129" width="244.43135999999998"><g><svg viewBox="0 0 244.43135999999998 118.57377130977129" height="118.57377130977129" width="244.43135999999998"><g><svg viewBox="0 0 244.43135999999998 118.57377130977129" height="118.57377130977129" width="244.43135999999998"><g><svg viewBox="0 0 244.43135999999998 118.57377130977129" height="118.57377130977129" width="244.43135999999998"><g id="textblocktransform"><svg viewBox="0 0 244.43135999999998 118.57377130977129" height="118.57377130977129" width="244.43135999999998" id="textblock"><g><svg viewBox="0 0 244.43135999999998 118.57377130977129" height="118.57377130977129" width="244.43135999999998"><g transform="matrix(1,0,0,1,0,0)"><svg width="244.43135999999998" viewBox="4.25 -35 72.15 35" height="118.57377130977129" data-palette-color="url(#1275f052-21bc-4828-8e17-27c2f108b8e4)"></svg></g></svg></g></svg></g></svg></g></svg></g></svg></g></svg></g><path d="M238.3 58.313L238.3 10.155 11.41 10.155 11.41 237.045 238.3 237.045 238.3 188.887 227.607 188.887 227.607 226.352 22.103 226.352 22.103 20.848 227.607 20.848 227.607 58.313Z" fill="url(#a1115a1c-d6db-4b03-990d-6b3aba02bebf)" stroke="transparent" data-fill-palette-color="tertiary"></path></svg></g><defs></defs><mask id="e7faaf0f-b901-4708-9e6d-67851c69c1f4"><g id="SvgjsG6654"><svg viewBox="0 0 395.52 247.2" height="247.2" width="395.52"><g><svg></svg></g><g><svg viewBox="0 0 395.52 247.2" height="247.2" width="395.52"><g transform="matrix(1,0,0,1,75.54432,64.31311434511434)"><svg viewBox="0 0 244.43135999999998 118.57377130977129" height="118.57377130977129" width="244.43135999999998"><g><svg viewBox="0 0 244.43135999999998 118.57377130977129" height="118.57377130977129" width="244.43135999999998"><g><svg viewBox="0 0 244.43135999999998 118.57377130977129" height="118.57377130977129" width="244.43135999999998"><g><svg viewBox="0 0 244.43135999999998 118.57377130977129" height="118.57377130977129" width="244.43135999999998"><g id="SvgjsG6653"><svg viewBox="0 0 244.43135999999998 118.57377130977129" height="118.57377130977129" width="244.43135999999998" id="SvgjsSvg6652"><g><svg viewBox="0 0 244.43135999999998 118.57377130977129" height="118.57377130977129" width="244.43135999999998"><g transform="matrix(1,0,0,1,0,0)"><svg width="244.43135999999998" viewBox="4.25 -35 72.15 35" height="118.57377130977129" data-palette-color="url(#1275f052-21bc-4828-8e17-27c2f108b8e4)"><path d="M8.25-27.1L8.25 0 4.25 0 4.25-35 8.65-35 21.65-5.5 34.6-35 38.95-35 38.95 0 34.95 0 34.95-27.1 23.05 0 20.2 0 8.25-27.1ZM72.35 0L60.9-31.5 59.25-31.5 47.7 0 43.65 0 56.45-35 63.65-35 76.4 0 72.35 0ZM49.9-9.2L49.9-12.7 70.3-12.7 70.3-9.2 49.9-9.2Z" opacity="1" transform="matrix(1,0,0,1,0,0)" fill="white" class="wordmark-text-0" id="SvgjsPath6651"></path></svg></g></svg></g></svg></g></svg></g></svg></g></svg></g></svg></g><path d="M238.3 58.313L238.3 10.155 11.41 10.155 11.41 237.045 238.3 237.045 238.3 188.887 227.607 188.887 227.607 226.352 22.103 226.352 22.103 20.848 227.607 20.848 227.607 58.313Z" fill="black" stroke="transparent"></path></svg></g><defs><mask></mask></defs></svg><rect width="395.52" height="247.2" fill="black" stroke="none" visibility="hidden"></rect></g></mask><linearGradient x1="0" x2="1" y1="0.548" y2="0.55" id="1275f052-21bc-4828-8e17-27c2f108b8e4"><stop stop-color="#ff6cab" offset="0"></stop><stop stop-color="#7366ff" offset="1"></stop></linearGradient><rect width="395.52" height="247.2" fill="url(#1275f052-21bc-4828-8e17-27c2f108b8e4)" mask="url(#e7faaf0f-b901-4708-9e6d-67851c69c1f4)" data-fill-palette-color="primary"></rect><mask id="6619571c-86ea-4b2d-ae41-43b794e4c567"><g id="SvgjsG6661"><svg viewBox="0 0 395.52 247.2" height="247.2" width="395.52"><g><svg></svg></g><g><svg viewBox="0 0 395.52 247.2" height="247.2" width="395.52"><g transform="matrix(1,0,0,1,75.54432,64.31311434511434)"><svg viewBox="0 0 244.43135999999998 118.57377130977129" height="118.57377130977129" width="244.43135999999998"><g><svg viewBox="0 0 244.43135999999998 118.57377130977129" height="118.57377130977129" width="244.43135999999998"><g><svg viewBox="0 0 244.43135999999998 118.57377130977129" height="118.57377130977129" width="244.43135999999998"><g><svg viewBox="0 0 244.43135999999998 118.57377130977129" height="118.57377130977129" width="244.43135999999998"><g id="SvgjsG6660"><svg viewBox="0 0 244.43135999999998 118.57377130977129" height="118.57377130977129" width="244.43135999999998" id="SvgjsSvg6659"><g><svg viewBox="0 0 244.43135999999998 118.57377130977129" height="118.57377130977129" width="244.43135999999998"><g transform="matrix(1,0,0,1,0,0)"><svg width="244.43135999999998" viewBox="4.25 -35 72.15 35" height="118.57377130977129" data-palette-color="url(#1275f052-21bc-4828-8e17-27c2f108b8e4)"></svg></g></svg></g></svg></g></svg></g></svg></g></svg></g></svg></g><path d="M238.3 58.313L238.3 10.155 11.41 10.155 11.41 237.045 238.3 237.045 238.3 188.887 227.607 188.887 227.607 226.352 22.103 226.352 22.103 20.848 227.607 20.848 227.607 58.313Z" fill="white" stroke="transparent"></path></svg></g><defs><mask></mask></defs><mask><g id="SvgjsG6658"><svg viewBox="0 0 395.52 247.2" height="247.2" width="395.52"><g><svg></svg></g><g><svg viewBox="0 0 395.52 247.2" height="247.2" width="395.52"><g transform="matrix(1,0,0,1,75.54432,64.31311434511434)"><svg viewBox="0 0 244.43135999999998 118.57377130977129" height="118.57377130977129" width="244.43135999999998"><g><svg viewBox="0 0 244.43135999999998 118.57377130977129" height="118.57377130977129" width="244.43135999999998"><g><svg viewBox="0 0 244.43135999999998 118.57377130977129" height="118.57377130977129" width="244.43135999999998"><g><svg viewBox="0 0 244.43135999999998 118.57377130977129" height="118.57377130977129" width="244.43135999999998"><g id="SvgjsG6657"><svg viewBox="0 0 244.43135999999998 118.57377130977129" height="118.57377130977129" width="244.43135999999998" id="SvgjsSvg6656"><g><svg viewBox="0 0 244.43135999999998 118.57377130977129" height="118.57377130977129" width="244.43135999999998"><g transform="matrix(1,0,0,1,0,0)"><svg width="244.43135999999998" viewBox="4.25 -35 72.15 35" height="118.57377130977129" data-palette-color="url(#1275f052-21bc-4828-8e17-27c2f108b8e4)"><path d="M8.25-27.1L8.25 0 4.25 0 4.25-35 8.65-35 21.65-5.5 34.6-35 38.95-35 38.95 0 34.95 0 34.95-27.1 23.05 0 20.2 0 8.25-27.1ZM72.35 0L60.9-31.5 59.25-31.5 47.7 0 43.65 0 56.45-35 63.65-35 76.4 0 72.35 0ZM49.9-9.2L49.9-12.7 70.3-12.7 70.3-9.2 49.9-9.2Z" opacity="1" transform="matrix(1,0,0,1,0,0)" fill="black" class="wordmark-text-0" id="SvgjsPath6655"></path></svg></g></svg></g></svg></g></svg></g></svg></g></svg></g></svg></g><path d="M238.3 58.313L238.3 10.155 11.41 10.155 11.41 237.045 238.3 237.045 238.3 188.887 227.607 188.887 227.607 226.352 22.103 226.352 22.103 20.848 227.607 20.848 227.607 58.313Z" fill="black" stroke="transparent"></path></svg></g><defs><mask></mask></defs></svg><rect width="395.52" height="247.2" fill="black" stroke="none" visibility="hidden"></rect></g></mask></svg><rect width="395.52" height="247.2" fill="black" stroke="none" visibility="hidden"></rect></g></mask><linearGradient x1="0" x2="1" y1="0.548" y2="0.55" id="a1115a1c-d6db-4b03-990d-6b3aba02bebf"><stop stop-color="#ff6cab" offset="0"></stop><stop stop-color="#7366ff" offset="1"></stop></linearGradient></svg><rect width="395.52" height="247.2" fill="none" stroke="none" visibility="hidden"></rect></g></svg></g></svg>